<svg width="24" height="24" viewBox="0 0 24 24" fill="none" xmlns="http://www.w3.org/2000/svg">
<path d="M9.46204 9.58949L11.628 14.8145C13.0381 14.132 14.5821 13.7713 16.1485 13.7585C17.6736 13.7579 19.1769 14.1198 20.5345 14.8145V9.58949C19.9883 9.24485 19.3821 9.00603 18.7475 8.88549L17.6375 6.09699C16.1206 6.05398 14.6131 6.35 13.225 6.96349C10.085 8.34399 9.46204 9.58949 9.46204 9.58949Z" stroke="#F5F5F5" stroke-width="2" stroke-linecap="round" stroke-linejoin="round"/>
<path d="M16.449 13.7655L17.808 16.88C17.8702 17.0223 17.9037 17.1755 17.9067 17.3308C17.9096 17.486 17.882 17.6404 17.8253 17.785C17.7686 17.9295 17.684 18.0615 17.5763 18.1734C17.4685 18.2853 17.3399 18.3749 17.1975 18.437L10.9785 21.151C10.6912 21.2764 10.3658 21.2825 10.0739 21.168C9.78199 21.0535 9.54753 20.8278 9.42203 20.5405L3.56453 7.12001C3.43918 6.83258 3.43313 6.50713 3.54771 6.21524C3.66229 5.92335 3.88812 5.68892 4.17553 5.56351L10.394 2.84901C10.5364 2.78687 10.6896 2.75338 10.8449 2.75045C11.0002 2.74753 11.1545 2.77523 11.2991 2.83197C11.4437 2.88871 11.5757 2.97338 11.6875 3.08114C11.7994 3.1889 11.8889 3.31764 11.951 3.46001L13.441 6.87401" stroke="#F5F5F5" stroke-width="2" stroke-linecap="round" stroke-linejoin="round"/>
</svg>
